<svg xmlns="http://www.w3.org/2000/svg" fill="" viewBox="0 0 20 19" class="c-icon c-cart-link__icon"><path d="M15.317 15H3.31V3.042L0 .63.46 0l3.632 2.646V5.34H20l-2.033 7.734A2.79 2.79 0 0115.317 15zm-11.225-.78h11.225c.864 0 1.628-.55 1.902-1.368l1.769-6.731H4.092v8.1zM5.5 19c-.827 0-1.5-.673-1.5-1.5S4.673 16 5.5 16s1.5.673 1.5 1.5S6.327 19 5.5 19zm0-2.316a.817.817 0 000 1.632.817.817 0 000-1.632zm8 2.316c-.827 0-1.5-.673-1.5-1.5s.673-1.5 1.5-1.5 1.5.673 1.5 1.5-.673 1.5-1.5 1.5zm0-2.316a.817.817 0 000 1.632.817.817 0 000-1.632z"></path></svg>