<svg fill="" viewBox="0 0 23 23" class="c-icon c-icon--search"><path fill-rule="evenodd" d="M22.614 20.685l-5.742-5.744c-.043-.043-.043-.086 0-.129a9.281 9.281 0 001.671-7.03C17.901 3.838 14.73.708 10.787.108 4.488-.835-.868 4.524.117 10.782c.6 3.944 3.729 7.117 7.67 7.76 2.658.428 5.1-.258 7.028-1.672.043-.043.086-.043.129 0l5.742 5.744c.514.515 1.371.515 1.928 0 .515-.514.515-1.372 0-1.929zM2.39 11.211a7.147 7.147 0 018.784-8.788 7.062 7.062 0 015.014 5.016 7.147 7.147 0 01-8.785 8.788c-2.4-.643-4.37-2.572-5.013-5.016z"></path></svg>